<svg xmlns="http://www.w3.org/2000/svg">
    <symbol id="rooms" viewBox="0 0 32 37">
        <path d="M3.55556 36.3338H28.4445C30.4054 36.3338 32 34.7391 32 32.7782V16.7782C32.0003 16.5447 31.9544 16.3135 31.865 16.0978C31.7756 15.8821 31.6445 15.6862 31.4791 15.5213L17.2569 1.29908C17.0919 1.13384 16.896 1.00275 16.6804 0.913311C16.4647 0.82387 16.2335 0.777832 16 0.777832C15.7665 0.777832 15.5353 0.82387 15.3197 0.913311C15.104 1.00275 14.9081 1.13384 14.7431 1.29908L0.52089 15.5213C0.35556 15.6862 0.224434 15.8821 0.135043 16.0978C0.0456525 16.3135 -0.00024025 16.5447 9.45808e-07 16.7782V32.7782C9.45808e-07 34.7391 1.59467 36.3338 3.55556 36.3338V36.3338ZM12.4445 32.7782V23.8893H19.5556V32.7782H12.4445ZM3.55556 17.5142L16 5.06975L28.4445 17.5142L28.4462 32.7782H23.1111V23.8893C23.1111 21.9284 21.5165 20.3338 19.5556 20.3338H12.4445C10.4836 20.3338 8.8889 21.9284 8.8889 23.8893V32.7782H3.55556V17.5142Z" fill="white" fill-opacity="0.65"/>
    </symbol>
    <symbol id="security" viewBox="0 0 31 39">
        <path d="M25.1875 11.7V9.75C25.1875 4.37385 20.8417 0 15.5 0C10.1583 0 5.8125 4.37385 5.8125 9.75V15.6H3.875C1.73794 15.6 0 17.3491 0 19.5V35.1C0 37.2509 1.73794 39 3.875 39H27.125C29.2621 39 31 37.2509 31 35.1V19.5C31 17.3491 29.2621 15.6 27.125 15.6H9.6875V9.75C9.6875 6.5247 12.2954 3.9 15.5 3.9C18.7046 3.9 21.3125 6.5247 21.3125 9.75V11.7H25.1875ZM27.125 19.5L27.1289 35.1H3.875V19.5H27.125Z" fill="#FFF5F5" fill-opacity="0.65"/>
    </symbol>
    <symbol id="statistics" viewBox="0 0 36 36">
        <path d="M32.3989 18.246H17.754V3.60109C17.754 3.42109 17.6067 3.27383 17.4267 3.27383H16.3631C14.2142 3.27031 12.0859 3.69172 10.1004 4.51383C8.11503 5.33593 6.31177 6.5425 4.79441 8.06412C3.30009 9.55382 2.10943 11.3197 1.28862 13.2635C0.434486 15.2796 -0.00380125 17.4474 2.48356e-05 19.6369C-0.00349398 21.7858 0.417922 23.9142 1.24003 25.8996C2.06213 27.885 3.2687 29.6882 4.79032 31.2056C6.29163 32.7069 8.04248 33.8891 9.98969 34.7114C12.0058 35.5655 14.1736 36.0038 16.3631 36C18.512 36.0035 20.6404 35.5821 22.6258 34.76C24.6112 33.9379 26.4144 32.7313 27.9318 31.2097C29.4331 29.7084 30.6153 27.9575 31.4376 26.0103C32.2917 23.9942 32.73 21.8264 32.7262 19.6369V18.5733C32.7262 18.3933 32.5789 18.246 32.3989 18.246ZM25.9232 29.2829C24.6565 30.5398 23.1543 31.5343 21.5025 32.2096C19.8508 32.8849 18.0821 33.2277 16.2977 33.2183C12.6937 33.2019 9.30653 31.7906 6.75798 29.242C4.19306 26.6771 2.78175 23.2654 2.78175 19.6369C2.78175 16.0084 4.19306 12.5967 6.75798 10.0318C8.99154 7.79822 11.8673 6.43599 14.9722 6.12509V21.0278H29.8749C29.5599 24.149 28.1854 27.0412 25.9232 29.2829ZM35.9988 15.9716L35.8924 14.818C35.5447 11.0504 33.8716 7.4955 31.1799 4.81196C28.4863 2.12349 24.9387 0.459646 21.1493 0.107572L19.9916 0.00121196C19.7994 -0.0151511 19.6357 0.132117 19.6357 0.324383V16.037C19.6357 16.217 19.783 16.3643 19.963 16.3643L35.6715 16.3234C35.8638 16.3234 36.0152 16.1597 35.9988 15.9716ZM22.4093 13.5907V3.09383C24.9862 3.63319 27.351 4.90939 29.2163 6.76734C31.0858 8.63273 32.3662 11.0054 32.898 13.5621L22.4093 13.5907Z" fill="#FFF5F5" fill-opacity="0.65"/>
    </symbol>
    <symbol id="members" viewBox="0 0 34 25"> 
        <path d="M24.2173 14.2656C26.3345 15.7188 27.8182 17.6875 27.8182 20.3125V25H34V20.3125C34 16.9062 28.4827 14.8906 24.2173 14.2656ZM21.6364 12.5C25.0518 12.5 27.8182 9.70312 27.8182 6.25C27.8182 2.79688 25.0518 0 21.6364 0C20.91 0 20.23 0.15625 19.5809 0.375C20.9108 2.03784 21.6363 4.11157 21.6363 6.25C21.6363 8.38843 20.9108 10.4622 19.5809 12.125C20.23 12.3438 20.91 12.5 21.6364 12.5ZM12.3636 12.5C15.7791 12.5 18.5455 9.70312 18.5455 6.25C18.5455 2.79688 15.7791 0 12.3636 0C8.94818 0 6.18182 2.79688 6.18182 6.25C6.18182 9.70312 8.94818 12.5 12.3636 12.5ZM12.3636 3.125C14.0636 3.125 15.4545 4.53125 15.4545 6.25C15.4545 7.96875 14.0636 9.375 12.3636 9.375C10.6636 9.375 9.27273 7.96875 9.27273 6.25C9.27273 4.53125 10.6636 3.125 12.3636 3.125ZM12.3636 14.0625C8.23727 14.0625 0 16.1562 0 20.3125V25H24.7273V20.3125C24.7273 16.1562 16.49 14.0625 12.3636 14.0625ZM21.6364 21.875H3.09091V20.3281C3.4 19.2031 8.19091 17.1875 12.3636 17.1875C16.5364 17.1875 21.3273 19.2031 21.6364 20.3125V21.875Z" fill="white" fill-opacity="0.65"/>
    </symbol>
    <symbol id="billing" viewBox="0 0 17 31">
        <path d="M9.01 13.6056C5.151 12.5894 3.91 11.5389 3.91 9.90278C3.91 8.02556 5.627 6.71667 8.5 6.71667C10.914 6.71667 12.121 7.64667 12.563 9.12778C12.767 9.81667 13.328 10.3333 14.042 10.3333H14.552C15.674 10.3333 16.473 9.21389 16.082 8.14611C15.368 6.11389 13.702 4.42611 11.05 3.77167V2.58333C11.05 1.15389 9.911 0 8.5 0C7.089 0 5.95 1.15389 5.95 2.58333V3.72C2.652 4.44333 0 6.61333 0 9.93722C0 13.9156 3.247 15.8961 7.99 17.05C12.24 18.0833 13.09 19.5989 13.09 21.2006C13.09 22.3889 12.257 24.2833 8.5 24.2833C5.695 24.2833 4.25 23.2672 3.689 21.8206C3.434 21.1489 2.856 20.6667 2.159 20.6667H1.683C0.543999 20.6667 -0.255 21.8378 0.17 22.9056C1.139 25.2994 3.4 26.7117 5.95 27.2628V28.4167C5.95 29.8461 7.089 31 8.5 31C9.911 31 11.05 29.8461 11.05 28.4167V27.2972C14.365 26.66 17 24.7139 17 21.1833C17 16.2922 12.869 14.6217 9.01 13.6056Z" fill="white" fill-opacity="0.65"/>
    </symbol>
    <symbol id="settings" viewBox="0 0 30 30">
        <path d="M26.2822 16.485L26.2671 16.515C26.3278 16.02 26.3885 15.51 26.3885 15C26.3885 14.49 26.3429 14.01 26.2822 13.515L26.2974 13.545L30 10.665L26.3126 4.335L21.9575 6.075L21.9727 6.09C21.1836 5.49 20.3187 4.98 19.3778 4.59H19.393L18.695 0H11.305L10.6373 4.605H10.6525C9.71169 4.995 8.84674 5.505 8.05766 6.105L8.07284 6.09L3.70258 4.335L0 10.665L3.70258 13.545L3.71775 13.515C3.65706 14.01 3.61153 14.49 3.61153 15C3.61153 15.51 3.65706 16.02 3.73293 16.515L3.71775 16.485L0.531108 18.96L0.0303493 19.35L3.71775 25.65L8.08801 23.925L8.05766 23.865C8.86191 24.48 9.72686 24.99 10.6829 25.38H10.6373L11.3202 30H18.6798C18.6798 30 18.7253 29.73 18.7709 29.37L19.3475 25.395H19.3323C20.2731 25.005 21.1533 24.495 21.9575 23.88L21.9272 23.94L26.2974 25.665L29.9848 19.365C29.9848 19.365 29.7724 19.185 29.4841 18.975L26.2822 16.485ZM14.9924 20.25C12.0637 20.25 9.68134 17.895 9.68134 15C9.68134 12.105 12.0637 9.75 14.9924 9.75C17.9211 9.75 20.3035 12.105 20.3035 15C20.3035 17.895 17.9211 20.25 14.9924 20.25Z" fill="#C2C2C2"/>
    </symbol>
    <symbol id="notification" viewBox="0 0 26 31">
        <path d="M13 31C12.1644 31 11.4481 30.6968 10.8512 30.0904C10.2544 29.484 9.95592 28.7684 9.95592 27.9437H16.0441C16.0441 28.7684 15.7456 29.484 15.1488 30.0904C14.5519 30.6968 13.8356 31 13 31ZM22.9201 21.6854L26 24.8146V26.3427H0V24.8146L3.07989 21.6854V13.1714C3.07989 10.7942 3.79614 8.69601 5.22865 6.87676C6.66116 5.05751 8.47567 3.88106 10.6722 3.34742V2.32864C10.6722 1.64945 10.899 1.09155 11.3526 0.65493C11.8062 0.21831 12.3554 0 13 0C13.6446 0 14.1818 0.21831 14.6116 0.65493C15.0413 1.09155 15.2562 1.64945 15.2562 2.32864V3.34742C17.5005 3.88106 19.3388 5.05751 20.7713 6.87676C22.2039 8.69601 22.9201 10.7942 22.9201 13.1714V21.6854Z" fill="#C2C2C2"/>
    </symbol>
    <symbol id="profile" viewBox="0 0 46 46">
        <path d="M23.3206 0.00213693C10.3865 -0.172558 -0.172558 10.3865 0.00213693 23.3206C0.174621 35.7251 10.2749 45.8253 22.6793 45.9978C35.6156 46.1747 46.1725 35.6156 45.9956 22.6815C45.8253 10.2749 35.7251 0.174621 23.3206 0.00213693ZM37.2984 36.185C37.2544 36.2327 37.2004 36.27 37.1403 36.2945C37.0802 36.3189 37.0155 36.3298 36.9507 36.3264C36.8859 36.3231 36.8227 36.3055 36.7654 36.2749C36.7082 36.2444 36.6584 36.2016 36.6196 36.1496C35.6306 34.8557 34.4195 33.7479 33.0427 32.878C30.2277 31.0713 26.6608 30.0762 23 30.0762C19.3391 30.0762 15.7722 31.0713 12.9572 32.878C11.5805 33.7476 10.3694 34.855 9.38039 36.1485C9.34154 36.2005 9.29173 36.2433 9.2345 36.2738C9.17727 36.3044 9.11403 36.3219 9.04924 36.3253C8.98446 36.3287 8.91972 36.3178 8.85963 36.2933C8.79954 36.2689 8.74555 36.2316 8.70151 36.1839C5.45713 32.6816 3.61932 28.1052 3.54027 23.3317C3.36004 12.5724 12.1888 3.5668 22.9524 3.54027C33.7161 3.51373 42.4597 12.254 42.4597 23C42.4634 27.8886 40.6199 32.5981 37.2984 36.185Z" fill="#1D2343"/>
        <path d="M23 10.6165C20.8196 10.6165 18.8482 11.4336 17.4474 12.9185C16.0465 14.4034 15.3466 16.4566 15.5047 18.6602C15.8253 23 19.1877 26.5381 23 26.5381C26.8123 26.5381 30.168 23 30.4953 18.6613C30.659 16.4788 29.9646 14.4443 28.5405 12.9318C27.1341 11.4391 25.166 10.6165 23 10.6165Z" fill="#1D2343"/>
    </symbol>
    <symbol id="avatar" viewBox="0 0 87 87">
        <path d="M44.1064 0.00404158C19.6441 -0.32636 -0.32636 19.6441 0.00404158 44.1064C0.330261 67.567 19.4329 86.6696 42.8935 86.9959C67.36 87.3304 87.3263 67.36 86.9917 42.8977C86.6696 19.4329 67.567 0.330261 44.1064 0.00404158ZM70.5427 68.4369C70.4594 68.527 70.3573 68.5976 70.2436 68.6439C70.13 68.6901 70.0076 68.7107 69.885 68.7043C69.7625 68.6979 69.6429 68.6647 69.5346 68.6069C69.4264 68.5491 69.3322 68.4682 69.2587 68.37C67.3883 65.9228 65.0977 63.8276 62.4939 62.1823C57.1698 58.7653 50.4237 56.8833 43.5 56.8833C36.5762 56.8833 29.8301 58.7653 24.506 62.1823C21.9023 63.8269 19.6117 65.9214 17.7412 68.3679C17.6677 68.4661 17.5735 68.547 17.4653 68.6048C17.357 68.6626 17.2374 68.6959 17.1149 68.7022C16.9923 68.7086 16.8699 68.688 16.7563 68.6418C16.6426 68.5955 16.5405 68.5249 16.4572 68.4348C10.3211 61.8108 6.84523 53.1554 6.69572 44.1273C6.35486 23.7783 23.0527 6.74591 43.41 6.69572C63.7674 6.64553 80.3042 23.1761 80.3042 43.5C80.3112 52.7458 76.8246 61.6528 70.5427 68.4369Z" fill="white"/>
        <path d="M43.5 20.0791C39.3763 20.0791 35.6478 21.6244 32.9983 24.4329C30.3488 27.2413 29.0251 31.1245 29.3241 35.2922C29.9306 43.5 36.2897 50.1916 43.5 50.1916C50.7103 50.1916 57.057 43.5 57.6759 35.2943C57.9854 31.1664 56.6722 27.3186 53.9788 24.458C51.3188 21.6349 47.5966 20.0791 43.5 20.0791Z" fill="white"/>
    </symbol>
    <symbol id="buttonTV" viewBox="0 0 31 28">
        <path d="M27.9 5.54851H19.2417L22.7959 2.11643L20.6041 0L15.5 4.92885L10.3958 0L8.20415 2.11643L11.7583 5.54851H3.1C1.39035 5.54851 0 6.89111 0 8.54204V25.0065C0 26.6574 1.39035 28 3.1 28H27.9C29.6096 28 31 26.6574 31 25.0065V8.54204C31 6.89111 29.6096 5.54851 27.9 5.54851ZM3.1 25.0065V8.54204H27.9L27.9031 25.0065H3.1Z" fill="#FFF5F5"/>
    </symbol>
    <symbol id="buttonKettle" viewBox="0 0 27 28">
        <path d="M12.7503 0.00352921C5.70039 0.00352921 0.000492142 3.98198 0.000492142 8.84452C0.000492142 10.6127 0.750479 12.2336 2.10045 13.7071C0.717328 15.4821 -0.0218535 17.6605 0.000492142 19.8958V25.053C0.000492142 26.6739 1.35047 28 3.00044 28H22.5001C23.2957 28 24.0588 27.6895 24.6214 27.1368C25.184 26.5842 25.5 25.8346 25.5 25.053V19.8958C25.5 18.1276 25.05 16.3594 24.0001 14.7385L27 11.7915L22.5001 7.37102L19.3501 10.4654C17.1948 9.31434 14.7661 8.74854 12.3142 8.82624C9.86224 8.90394 7.47571 9.62233 5.40039 10.9074C4.83516 10.3633 4.51168 9.62185 4.50041 8.84452C4.50041 6.19222 8.25034 3.98197 12.7503 3.98197C14.8502 3.98197 16.9502 4.57137 18.4502 5.45547L21.4501 2.50848C18.8826 0.811976 15.8438 -0.0629804 12.7503 0.00352921ZM12.7503 11.7915C18.0002 11.7915 22.5001 16.212 22.5001 19.8958V25.053H3.00044V19.8958C3.00044 16.212 7.50036 11.7915 12.7503 11.7915ZM13.5002 14.0018C9.00033 14.0018 6.00038 16.212 6.00038 20.6325V22.106H9.00033V20.6325C9.00033 19.159 9.00033 15.4753 13.5002 14.0018Z" fill="#FFF5F5"/>
    </symbol>
    <symbol id="buttonWasher" viewBox="0 0 25 28">
        <path d="M1.38889 27.7778H23.6111C23.9795 27.7778 24.3327 27.6314 24.5932 27.371C24.8537 27.1105 25 26.7572 25 26.3889V4.16667C25 1.86944 23.1306 0 20.8333 0H4.16667C1.86944 0 0 1.86944 0 4.16667V26.3889C0 26.7572 0.146329 27.1105 0.406796 27.371C0.667263 27.6314 1.02053 27.7778 1.38889 27.7778ZM20.8333 2.67222C21.0157 2.67222 21.1963 2.70815 21.3648 2.77795C21.5333 2.84774 21.6865 2.95005 21.8154 3.07902C21.9444 3.20799 22.0467 3.3611 22.1165 3.52961C22.1863 3.69811 22.2222 3.87872 22.2222 4.06111C22.2222 4.2435 22.1863 4.42411 22.1165 4.59262C22.0467 4.76112 21.9444 4.91423 21.8154 5.0432C21.6865 5.17217 21.5333 5.27448 21.3648 5.34428C21.1963 5.41407 21.0157 5.45 20.8333 5.45C20.465 5.45 20.1117 5.30367 19.8512 5.0432C19.5908 4.78274 19.4444 4.42947 19.4444 4.06111C19.4444 3.69275 19.5908 3.33949 19.8512 3.07902C20.1117 2.81855 20.465 2.67222 20.8333 2.67222ZM16.6667 2.67222C16.8491 2.67222 17.0297 2.70815 17.1982 2.77795C17.3667 2.84774 17.5198 2.95005 17.6488 3.07902C17.7777 3.20799 17.88 3.3611 17.9498 3.52961C18.0196 3.69811 18.0556 3.87872 18.0556 4.06111C18.0556 4.2435 18.0196 4.42411 17.9498 4.59262C17.88 4.76112 17.7777 4.91423 17.6488 5.0432C17.5198 5.17217 17.3667 5.27448 17.1982 5.34428C17.0297 5.41407 16.8491 5.45 16.6667 5.45C16.2983 5.45 15.945 5.30367 15.6846 5.0432C15.4241 4.78274 15.2778 4.42947 15.2778 4.06111C15.2778 3.69275 15.4241 3.33949 15.6846 3.07902C15.945 2.81855 16.2983 2.67222 16.6667 2.67222ZM12.5 6.94444C17.0958 6.94444 20.8333 10.6819 20.8333 15.2778C20.8333 19.8736 17.0958 23.6111 12.5 23.6111C7.90417 23.6111 4.16667 19.8736 4.16667 15.2778C4.16667 10.6819 7.90417 6.94444 12.5 6.94444Z" fill="white"/>
        <path d="M13.5639 20.7347C15.5069 20.3722 17.1347 18.9083 17.7625 17.0333C18.217 15.7173 18.1408 14.276 17.55 13.0153C17.4852 12.8766 17.3749 12.7643 17.2375 12.6971C17.1 12.6299 16.9436 12.6118 16.7944 12.6458C15.9555 12.8528 15.3791 13.268 14.7111 13.7583C13.6194 14.5597 12.2597 15.5555 9.7222 15.5555C8.59303 15.5555 7.70831 15.3528 6.96665 15.0639L6.94859 15.0764C6.91922 15.9124 7.07875 16.7443 7.4153 17.5102C7.75186 18.276 8.25679 18.9561 8.89251 19.4999C9.52823 20.0437 10.2784 20.4371 11.0872 20.6509C11.8959 20.8646 12.7425 20.8933 13.5639 20.7347Z" fill="white"/>
    </symbol>
    <symbol id="buttonFridge" viewBox="0 0 24 29">
        <path d="M21 0H3C1.3455 0 0 1.30065 0 2.9V26.1C0 27.6994 1.3455 29 3 29H21C22.6545 29 24 27.6994 24 26.1V2.9C24 1.30065 22.6545 0 21 0ZM21 2.9L21.0015 10.15H9V7.25H6V10.15H3V2.9H21ZM3 26.1V13.05H6V17.4H9V13.05H21.0015L21.003 26.1H3Z" fill="white"/>
    </symbol>
    <symbol id="buttonStove" viewBox="0 0 29 30">
        <path d="M5.8 18H8.7L13.05 22.5H10.15L5.8 18ZM2.9 3H4.35V1.5C4.35 1.10218 4.50277 0.720644 4.7747 0.43934C5.04662 0.158035 5.41544 0 5.8 0H11.6C11.9846 0 12.3534 0.158035 12.6253 0.43934C12.8972 0.720644 13.05 1.10218 13.05 1.5V3H15.95V1.5C15.95 1.10218 16.1028 0.720644 16.3747 0.43934C16.6466 0.158035 17.0154 0 17.4 0H23.2C23.5846 0 23.9534 0.158035 24.2253 0.43934C24.4972 0.720644 24.65 1.10218 24.65 1.5V3H26.1C26.8691 3 27.6068 3.31607 28.1506 3.87868C28.6945 4.44129 29 5.20435 29 6V25.5C29 26.2956 28.6945 27.0587 28.1506 27.6213C27.6068 28.1839 26.8691 28.5 26.1 28.5V30H21.75V28.5H7.25V30H2.9V28.5C2.13087 28.5 1.39325 28.1839 0.84939 27.6213C0.305535 27.0587 0 26.2956 0 25.5V6C0 5.20435 0.305535 4.44129 0.84939 3.87868C1.39325 3.31607 2.13087 3 2.9 3ZM23.2 7.5C23.5846 7.5 23.9534 7.65804 24.2253 7.93934C24.4972 8.22064 24.65 8.60218 24.65 9C24.65 9.39782 24.4972 9.77936 24.2253 10.0607C23.9534 10.342 23.5846 10.5 23.2 10.5C22.8154 10.5 22.4466 10.342 22.1747 10.0607C21.9028 9.77936 21.75 9.39782 21.75 9C21.75 8.60218 21.9028 8.22064 22.1747 7.93934C22.4466 7.65804 22.8154 7.5 23.2 7.5ZM17.4 7.5C17.7846 7.5 18.1534 7.65804 18.4253 7.93934C18.6972 8.22064 18.85 8.60218 18.85 9C18.85 9.39782 18.6972 9.77936 18.4253 10.0607C18.1534 10.342 17.7846 10.5 17.4 10.5C17.0154 10.5 16.6466 10.342 16.3747 10.0607C16.1028 9.77936 15.95 9.39782 15.95 9C15.95 8.60218 16.1028 8.22064 16.3747 7.93934C16.6466 7.65804 17.0154 7.5 17.4 7.5ZM26.1 6H2.9V12H26.1V6ZM2.9 25.5H26.1V15H2.9V25.5ZM5.8 7.5C6.18456 7.5 6.55338 7.65804 6.8253 7.93934C7.09723 8.22064 7.25 8.60218 7.25 9C7.25 9.39782 7.09723 9.77936 6.8253 10.0607C6.55338 10.342 6.18456 10.5 5.8 10.5C5.41544 10.5 5.04662 10.342 4.7747 10.0607C4.50277 9.77936 4.35 9.39782 4.35 9C4.35 8.60218 4.50277 8.22064 4.7747 7.93934C5.04662 7.65804 5.41544 7.5 5.8 7.5ZM15.95 18H18.85L23.2 22.5H20.3L15.95 18Z" fill="white"/>
    </symbol>
    <symbol id="buttonPC" viewBox="0 0 29 24">
        <path d="M26.1 0H2.9C2.13087 0 1.39325 0.252856 0.84939 0.702944C0.305535 1.15303 0 1.76348 0 2.4V16.8C0 17.4365 0.305535 18.047 0.84939 18.4971C1.39325 18.9471 2.13087 19.2 2.9 19.2H11.6V21.6H7.25V24H21.75V21.6H17.4V19.2H26.1C26.8691 19.2 27.6068 18.9471 28.1506 18.4971C28.6945 18.047 29 17.4365 29 16.8V2.4C29 1.76348 28.6945 1.15303 28.1506 0.702944C27.6068 0.252856 26.8691 0 26.1 0ZM26.1 16.8H2.9V2.4H26.1V16.8Z" fill="#FFF5F5"/>
    </symbol>
    <symbol id="temperature" viewBox="0 0 22 40">
        <path d="M12.8045 25.9636V17.2727C12.8045 16.7905 12.6118 16.328 12.2688 15.987C11.9258 15.6461 11.4607 15.4545 10.9756 15.4545C10.4906 15.4545 10.0254 15.6461 9.68239 15.987C9.3394 16.328 9.14672 16.7905 9.14672 17.2727V25.9636C8.59389 26.2809 8.13421 26.7364 7.81337 27.2851C7.49252 27.8337 7.32168 28.4562 7.31783 29.0908C7.31783 30.0552 7.7032 30.9802 8.38917 31.6621C9.07513 32.3441 10.0055 32.7272 10.9756 32.7272C11.9457 32.7272 12.8761 32.3441 13.562 31.6621C14.248 30.9802 14.6334 30.0552 14.6334 29.0908C14.6295 28.4562 14.4587 27.8337 14.1378 27.2851C13.817 26.7364 13.3573 26.2809 12.8045 25.9636ZM19.2056 21.8181V8.18179C19.2056 6.01185 18.3385 3.93078 16.7951 2.39639C15.2517 0.862008 13.1583 0 10.9756 0C8.79288 0 6.69954 0.862008 5.15612 2.39639C3.6127 3.93078 2.74561 6.01185 2.74561 8.18179V21.8181C1.48156 23.2421 0.613365 24.9695 0.226893 26.8294C-0.15958 28.6894 -0.0509324 30.6174 0.542087 32.4227C1.13511 34.2281 2.19195 35.8483 3.60808 37.123C5.02421 38.3978 6.75055 39.2829 8.61634 39.6908C9.3914 39.8664 10.1812 39.9699 10.9756 39.9999C13.0983 40.0097 15.1782 39.4073 16.9634 38.2656C18.7486 37.1239 20.1624 35.492 21.0335 33.5676C21.9045 31.6433 22.1955 29.509 21.8711 27.4236C21.5466 25.3381 20.6207 23.391 19.2056 21.8181ZM15.5478 34.6726C14.0927 35.9553 12.1846 36.6108 10.2433 36.4948C8.30201 36.3789 6.48656 35.5011 5.19632 34.0544C3.90609 32.6078 3.24675 30.7109 3.36337 28.781C3.47998 26.8511 4.36299 25.0462 5.81814 23.7636C5.99095 23.5952 6.12843 23.3944 6.22261 23.1728C6.31679 22.9512 6.3658 22.7132 6.36681 22.4727V8.18179C6.36681 6.97627 6.84852 5.82012 7.70598 4.96768C8.56344 4.11525 9.7264 3.63635 10.939 3.63635C12.1517 3.63635 13.3146 4.11525 14.1721 4.96768C15.0295 5.82012 15.5112 6.97627 15.5112 8.18179V22.6181C15.5122 22.8587 15.5613 23.0966 15.6554 23.3182C15.7496 23.5398 15.8871 23.7406 16.0599 23.909C16.8075 24.627 17.3926 25.4951 17.7762 26.4554C18.1598 27.4158 18.3332 28.4464 18.2847 29.4786C18.2363 30.5109 17.9671 31.521 17.4952 32.4416C17.0233 33.3623 16.3594 34.1725 15.5478 34.8181V34.6726Z" fill="#FFF5F5" fill-opacity="0.79"/>
    </symbol>
    <symbol id="humidity" viewBox="0 0 27 36">
        <path d="M26.5 22.733C26.5 22.7325 26.5 22.732 26.5 22.7315L26.5 22.7007C26.5 22.7005 26.5 22.7002 26.5 22.7C26.5066 19.9962 25.6263 17.3634 23.9911 15.1908L14.8992 1.25251L14.8992 1.25246L14.8939 1.24469L14.8924 1.24246C14.7402 1.01321 14.5327 0.825852 14.2896 0.696564C14.0454 0.566749 13.7726 0.499359 13.496 0.500005C13.2194 0.50065 12.9469 0.569313 12.7034 0.700274C12.4598 0.831261 12.2525 1.02066 12.1012 1.25198L12.1008 1.25251L3.01446 15.1822C1.43448 17.2839 0.5 19.8854 0.5 22.6995V22.7315C0.5 29.781 6.34048 35.5 13.5 35.5C20.659 35.5 26.4991 29.7818 26.5 22.733ZM5.77781 17.0135L13.5 5.17387L21.2222 17.0135L21.2285 17.0232L21.2353 17.0327L21.28 17.0947L21.2803 17.0951L21.2809 17.0947C22.4702 18.6622 23.1731 20.6019 23.1731 22.7041V22.7315C23.1731 27.952 18.842 32.2162 13.5 32.2162C8.15795 32.2162 3.82688 27.952 3.82688 22.7315L3.82688 22.7041L3.82687 22.7028C3.82178 20.687 4.48274 18.7229 5.71212 17.1053L5.71224 17.1054L5.71967 17.0951L5.76465 17.0326L5.77145 17.0232L5.77781 17.0135Z" fill="#BBE6E8" stroke="#BBE6E8"/>
    </symbol>
    <symbol id="lightning" viewBox="0 0 33 33">
        <path d="M16.5 8.95007C15.5085 8.94727 14.5262 9.14054 13.6096 9.51876C12.6931 9.89698 11.8603 10.4527 11.1593 11.1539C10.4583 11.8551 9.90286 12.688 9.52493 13.6047C9.14699 14.5214 8.95403 15.5038 8.95714 16.4953C8.95434 17.4865 9.14755 18.4685 9.52565 19.3848C9.90375 20.301 10.4593 21.1335 11.1603 21.8343C11.8613 22.5351 12.6939 23.0904 13.6103 23.4682C14.5267 23.846 15.5088 24.0389 16.5 24.0358C17.491 24.0386 18.4728 23.8455 19.3889 23.4675C20.3051 23.0895 21.1374 22.5342 21.8382 21.8335C22.5389 21.1327 23.0943 20.3003 23.4722 19.3842C23.8502 18.4681 24.0433 17.4863 24.0405 16.4953C24.0439 15.5039 23.8513 14.5216 23.4736 13.6049C23.0959 12.6882 22.5407 11.8553 21.8399 11.1541C21.139 10.4528 20.3065 9.89705 19.39 9.5188C18.4736 9.14055 17.4914 8.94727 16.5 8.95007ZM16.5 21.3251C15.2184 21.3251 13.9894 20.816 13.0832 19.9098C12.177 19.0036 11.6679 17.7745 11.6679 16.4929C11.6679 15.2114 12.177 13.9823 13.0832 13.0761C13.9894 12.1699 15.2184 11.6608 16.5 11.6608C17.7816 11.6608 19.0106 12.1699 19.9168 13.0761C20.823 13.9823 21.3321 15.2114 21.3321 16.4929C21.3321 17.7745 20.823 19.0036 19.9168 19.9098C19.0106 20.816 17.7816 21.3251 16.5 21.3251ZM28.2857 4.71429C27.5503 3.97886 26.2044 4.12971 25.2851 5.049C24.3658 5.97064 24.2173 7.3095 24.9527 8.04729C25.6881 8.78507 27.0317 8.63657 27.9534 7.71493C28.8726 6.79564 29.0211 5.44971 28.2857 4.71429ZM5.049 25.2898C4.12736 26.2091 3.97886 27.5503 4.71429 28.2857C5.44971 29.0211 6.79329 28.875 7.71493 27.9534C8.63657 27.0317 8.78507 25.6881 8.04964 24.9527C7.31421 24.2173 5.96829 24.3681 5.049 25.2898ZM4.71429 4.71429C3.97886 5.44971 4.12736 6.79564 5.04664 7.71493C5.96829 8.63657 7.31186 8.78271 8.04729 8.04729C8.78271 7.31186 8.63421 5.96593 7.71257 5.04664C6.79564 4.12971 5.44971 3.97886 4.71429 4.71429ZM25.2851 27.9486C26.2044 28.8703 27.5479 29.0211 28.2857 28.2857C29.0235 27.5503 28.8726 26.2044 27.951 25.2827C27.0294 24.3611 25.6881 24.2149 24.9504 24.9504C24.2126 25.6858 24.3658 27.0294 25.2851 27.9486ZM16.5 4.70957C17.5395 4.70957 18.3857 3.65593 18.3857 2.35243C18.3834 1.04893 17.5395 0 16.5 0C15.4581 0 14.6119 1.04893 14.6119 2.35243C14.6119 3.65593 15.4558 4.70957 16.5 4.70957ZM16.5 33C17.5395 33 18.3857 31.9464 18.3857 30.6429C18.3857 29.3394 17.5419 28.2904 16.5024 28.2904C15.4605 28.2904 14.6143 29.3394 14.6143 30.6429C14.6119 31.9464 15.4558 33 16.5 33ZM4.71429 16.5C4.71429 15.4605 3.65357 14.6143 2.35007 14.6143C1.04657 14.6143 0 15.4605 0 16.5C0 17.5419 1.04657 18.3857 2.35007 18.3857C3.65357 18.3857 4.71429 17.5419 4.71429 16.5ZM33 16.5C33 15.4605 31.944 14.6143 30.6405 14.6143C29.337 14.6143 28.2857 15.4605 28.2857 16.5C28.2857 17.5419 29.337 18.3857 30.6405 18.3857C31.944 18.3857 33 17.5419 33 16.5Z" fill="#F3F5FF" fill-opacity="0.75"/>
    </symbol>
    <symbol id="buttonDishwasher" viewBox="0 0 32 40">
        <path d="M28 0H4C2.93913 0 1.92172 0.421427 1.17157 1.17157C0.421427 1.92172 0 2.93913 0 4V36C0 37.0609 0.421427 38.0783 1.17157 38.8284C1.92172 39.5786 2.93913 40 4 40H28C29.0609 40 30.0783 39.5786 30.8284 38.8284C31.5786 38.0783 32 37.0609 32 36V4C32 2.93913 31.5786 1.92172 30.8284 1.17157C30.0783 0.421427 29.0609 0 28 0ZM12 4C12.5304 4 13.0391 4.21071 13.4142 4.58579C13.7893 4.96086 14 5.46957 14 6C14 6.53043 13.7893 7.03914 13.4142 7.41421C13.0391 7.78929 12.5304 8 12 8C11.4696 8 10.9609 7.78929 10.5858 7.41421C10.2107 7.03914 10 6.53043 10 6C10 5.46957 10.2107 4.96086 10.5858 4.58579C10.9609 4.21071 11.4696 4 12 4ZM6 4C6.53043 4 7.03914 4.21071 7.41421 4.58579C7.78929 4.96086 8 5.46957 8 6C8 6.53043 7.78929 7.03914 7.41421 7.41421C7.03914 7.78929 6.53043 8 6 8C5.46957 8 4.96086 7.78929 4.58579 7.41421C4.21071 7.03914 4 6.53043 4 6C4 5.46957 4.21071 4.96086 4.58579 4.58579C4.96086 4.21071 5.46957 4 6 4ZM28 36H4V12H28V36ZM21.34 26.66C21.38 28.06 20.82 29.42 19.82 30.42C19.3185 30.9219 18.723 31.3201 18.0676 31.5918C17.4121 31.8634 16.7095 32.0032 16 32.0032C15.2905 32.0032 14.5879 31.8634 13.9324 31.5918C13.277 31.3201 12.6815 30.9219 12.18 30.42C11.18 29.42 10.62 28.06 10.66 26.66C10.8 25.24 11.26 23.88 12 22.66C12.74 21 13.62 19.46 14.66 18L16 16C19.58 21.18 21.34 24.72 21.34 26.66Z" fill="white"/>
    </symbol>
    <symbol id="buttonMulticooker" viewBox="0 0 45 45">
        <path d="M43.2119 1.4511L43.054 1.29164C42.6459 0.882233 42.1611 0.557391 41.6273 0.335743C41.0934 0.114095 40.5211 0 39.943 0C39.365 0 38.7927 0.114095 38.2588 0.335743C37.725 0.557391 37.2402 0.882233 36.8321 1.29164L29.3754 8.7721C21.9528 4.1567 12.0819 5.0734 5.6376 11.5378C-1.87994 19.0805 -1.87846 31.3047 5.6376 38.843C13.1544 46.3843 25.34 46.3857 32.859 38.843C39.2529 32.4305 40.203 22.6309 35.7226 15.2053L43.2119 7.69149C44.037 6.86268 44.5003 5.74079 44.5003 4.57129C44.5003 3.4018 44.037 2.27991 43.2119 1.4511ZM28.2866 30.1952C25.2488 36.9495 18.1503 40.3248 12.4328 37.7335C6.71079 35.1406 4.53696 27.5615 7.57261 20.8071C10.6097 14.0498 17.7067 10.676 23.4265 13.2673C29.1455 15.8587 31.3215 23.4393 28.2866 30.1952ZM39.761 7.52091C39.0284 7.51933 38.3264 7.22701 37.8092 6.70815C37.292 6.18929 37.0019 5.48634 37.0027 4.75374C37.0027 3.22665 38.2383 1.98807 39.761 1.98807C41.2836 1.98807 42.5192 3.22665 42.5192 4.75374C42.52 5.48634 42.2299 6.18929 41.7128 6.70815C41.1956 7.22701 40.4936 7.51933 39.761 7.52091Z" fill="white"/>
    </symbol>
    <symbol id="buttonMicrowave" viewBox="0 0 43 30">
        <path d="M4.3 0C3.15957 0 2.06585 0.451529 1.25944 1.25526C0.453034 2.05898 0 3.14907 0 4.28571V25.7143C0 26.8509 0.453034 27.941 1.25944 28.7447C2.06585 29.5485 3.15957 30 4.3 30H38.7C39.8404 30 40.9342 29.5485 41.7406 28.7447C42.547 27.941 43 26.8509 43 25.7143V4.28571C43 3.14907 42.547 2.05898 41.7406 1.25526C40.9342 0.451529 39.8404 0 38.7 0H4.3ZM4.3 4.28571H30.1V25.7143H4.3V4.28571ZM36.55 4.28571C37.1202 4.28571 37.6671 4.51148 38.0703 4.91334C38.4735 5.31521 38.7 5.86025 38.7 6.42857C38.7 6.99689 38.4735 7.54194 38.0703 7.9438C37.6671 8.34566 37.1202 8.57143 36.55 8.57143C35.9798 8.57143 35.4329 8.34566 35.0297 7.9438C34.6265 7.54194 34.4 6.99689 34.4 6.42857C34.4 5.86025 34.6265 5.31521 35.0297 4.91334C35.4329 4.51148 35.9798 4.28571 36.55 4.28571ZM23.65 8.57143V21.4286H27.95V8.57143H23.65ZM36.55 12.8571C37.1202 12.8571 37.6671 13.0829 38.0703 13.4848C38.4735 13.8866 38.7 14.4317 38.7 15C38.7 15.5683 38.4735 16.1134 38.0703 16.5152C37.6671 16.9171 37.1202 17.1429 36.55 17.1429C35.9798 17.1429 35.4329 16.9171 35.0297 16.5152C34.6265 16.1134 34.4 15.5683 34.4 15C34.4 14.4317 34.6265 13.8866 35.0297 13.4848C35.4329 13.0829 35.9798 12.8571 36.55 12.8571Z" fill="white"/>
    </symbol>
    <symbol id="buttonGrill" viewBox="0 0 36 48">
        <path d="M28.8 48C32.784 48 36 44.784 36 40.8C36 36.816 32.784 33.6 28.8 33.6C25.68 33.6 23.04 35.616 22.032 38.4H9.936L14.712 31.056C16.0974 31.2473 17.5026 31.2473 18.888 31.056L21.336 34.824C22.344 33.552 23.64 32.544 25.176 31.92L23.736 29.688C26.676 28.3579 29.1702 26.2083 30.9197 23.4968C32.6692 20.7853 33.5998 17.6269 33.6 14.4H0C0 21.216 4.056 27.048 9.888 29.688L0.408 44.28C0.0629302 44.812 -0.0575609 45.459 0.0728497 46.0796C0.20326 46.7001 0.573972 47.2439 1.104 47.592C1.63602 47.9371 2.28299 48.0576 2.90356 47.9272C3.52414 47.7967 4.06788 47.426 4.416 46.896L6.816 43.176H22.032C23.04 45.984 25.68 48 28.8 48ZM28.8 38.4C30.12 38.4 31.2 39.48 31.2 40.8C31.2 42.12 30.12 43.2 28.8 43.2C27.48 43.2 26.4 42.12 26.4 40.8C26.4 39.48 27.48 38.4 28.8 38.4ZM5.808 19.2H27.792C25.944 23.424 21.696 26.4 16.8 26.4C11.904 26.4 7.656 23.424 5.808 19.2ZM10.584 12H12.984C13.344 9.24 13.536 8.064 10.848 4.896C9.84 3.696 9.216 3.048 9.744 0H7.368C6.864 2.664 7.44 4.92 9.504 7.104C10.032 7.68 11.4 8.712 10.584 12ZM16.536 12H18.936C19.296 9.24 19.488 8.064 16.8 4.896C15.792 3.696 15.168 3.024 15.696 0H13.32C12.816 2.664 13.392 4.92 15.456 7.104C16.008 7.68 17.376 8.712 16.536 12ZM22.584 12H24.984C25.344 9.24 25.536 8.064 22.848 4.896C21.84 3.696 21.216 3.048 21.744 0H19.368C18.864 2.664 19.44 4.92 21.504 7.104C22.032 7.68 23.4 8.712 22.584 12Z" fill="#FFF5F5"/>
    </symbol>
    <symbol id="bedroom" viewBox="0 0 47 37">
        <path d="M36.7308 16.8846H6.96155V6.13462C6.96482 5.03905 7.40148 3.9893 8.17616 3.21461C8.95085 2.43993 10.0006 2.00327 11.0962 2H35.9039C36.9994 2.00327 38.0492 2.43993 38.8239 3.21461C39.5985 3.9893 40.0352 5.03905 40.0385 6.13462V16.8846H36.7308Z"  stroke-width="3" stroke-linecap="round" stroke-linejoin="round" fill="transparent"/>
        <path d="M2 35.0768V23.4999C2.00518 21.747 2.70382 20.0674 3.94332 18.8278C5.18283 17.5883 6.86247 16.8897 8.61538 16.8845H38.3846C40.1375 16.8897 41.8172 17.5883 43.0567 18.8278C44.2962 20.0674 44.9948 21.747 45 23.4999V35.0768"  stroke-width="3" stroke-linecap="round" stroke-linejoin="round" fill="transparent"/>
        <path d="M2 35.077V34.2501C2.00191 33.5927 2.26389 32.9628 2.72871 32.498C3.19353 32.0332 3.82342 31.7712 4.48077 31.7693H42.5192C43.1766 31.7712 43.8065 32.0332 44.2713 32.498C44.7361 32.9628 44.9981 33.5927 45 34.2501V35.077"  stroke-width="3" stroke-linecap="round" stroke-linejoin="round" fill="transparent"/>
        <path d="M8.61539 16.8846V15.2308C8.61784 14.3543 8.96712 13.5144 9.5869 12.8946C10.2067 12.2748 11.0466 11.9256 11.9231 11.9231H20.1923C21.0688 11.9256 21.9087 12.2748 22.5285 12.8946C23.1483 13.5144 23.4975 14.3543 23.5 15.2308V16.8846"  stroke-width="3" stroke-linecap="round" stroke-linejoin="round" fill="transparent"/>
        <path d="M23.5 16.8846V15.2308C23.5025 14.3543 23.8517 13.5144 24.4715 12.8946C25.0913 12.2748 25.9312 11.9256 26.8077 11.9231H35.0769C35.9534 11.9256 36.7933 12.2748 37.4131 12.8946C38.0329 13.5144 38.3822 14.3543 38.3846 15.2308V16.8846"  stroke-width="3" stroke-linecap="round" stroke-linejoin="round" fill="transparent"/>
    </symbol>
    <symbol id="kitchen" viewBox="0 0 48 41">
        <path d="M5.4432 38.5884H4.8C3.52696 38.5884 2.30606 38.0802 1.40589 37.1756C0.505713 36.2711 0 35.0442 0 33.7649V4.82355C0 3.54427 0.505713 2.31738 1.40589 1.41279C2.30606 0.508194 3.52696 0 4.8 0H43.2C44.473 0 45.6939 0.508194 46.5941 1.41279C47.4943 2.31738 48 3.54427 48 4.82355V33.7649C48 35.0442 47.4943 36.2711 46.5941 37.1756C45.6939 38.0802 44.473 38.5884 43.2 38.5884H42.5568C42.1355 39.3217 41.5296 39.9305 40.7999 40.3538C40.0702 40.7771 39.2425 41 38.4 41C37.5575 41 36.7298 40.7771 36.0001 40.3538C35.2704 39.9305 34.6645 39.3217 34.2432 38.5884H13.7568C13.3355 39.3217 12.7296 39.9305 11.9999 40.3538C11.2702 40.7771 10.4425 41 9.6 41C8.75747 41 7.92977 40.7771 7.20011 40.3538C6.47044 39.9305 5.8645 39.3217 5.4432 38.5884ZM4.8 4.82355V33.7649H43.2V4.82355H4.8ZM9.6 19.2942H38.4V28.9413H9.6V19.2942ZM9.6 9.64711H21.6V14.4707H9.6V9.64711ZM19.2 21.706V24.1178H28.8V21.706H19.2ZM28.8 14.4707C28.1635 14.4707 27.553 14.2166 27.1029 13.7643C26.6529 13.312 26.4 12.6985 26.4 12.0589C26.4 11.4192 26.6529 10.8058 27.1029 10.3535C27.553 9.90121 28.1635 9.64711 28.8 9.64711C29.4365 9.64711 30.047 9.90121 30.4971 10.3535C30.9471 10.8058 31.2 11.4192 31.2 12.0589C31.2 12.6985 30.9471 13.312 30.4971 13.7643C30.047 14.2166 29.4365 14.4707 28.8 14.4707ZM36 14.4707C35.3635 14.4707 34.753 14.2166 34.3029 13.7643C33.8529 13.312 33.6 12.6985 33.6 12.0589C33.6 11.4192 33.8529 10.8058 34.3029 10.3535C34.753 9.90121 35.3635 9.64711 36 9.64711C36.6365 9.64711 37.247 9.90121 37.6971 10.3535C38.1471 10.8058 38.4 11.4192 38.4 12.0589C38.4 12.6985 38.1471 13.312 37.6971 13.7643C37.247 14.2166 36.6365 14.4707 36 14.4707Z"/>
    </symbol>
    <symbol id="livingRoom" viewBox="0 0 48 26">
        <path d="M14 0H18C19.0609 0 20.0783 0.421427 20.8284 1.17157C21.5786 1.92172 22 2.93913 22 4V12H10V4C10 2.93913 10.4214 1.92172 11.1716 1.17157C11.9217 0.421427 12.9391 0 14 0ZM30 0H34C35.0609 0 36.0783 0.421427 36.8284 1.17157C37.5786 1.92172 38 2.93913 38 4V12H26V4C26 2.93913 26.4214 1.92172 27.1716 1.17157C27.9217 0.421427 28.9391 0 30 0ZM2 6H4C4.53043 6 5.03914 6.21071 5.41421 6.58579C5.78929 6.96086 6 7.46957 6 8V12C6 13.0609 6.42143 14.0783 7.17157 14.8284C7.92172 15.5786 8.93913 16 10 16H38C39.0609 16 40.0783 15.5786 40.8284 14.8284C41.5786 14.0783 42 13.0609 42 12V8C42 7.46957 42.2107 6.96086 42.5858 6.58579C42.9609 6.21071 43.4696 6 44 6H46C46.5304 6 47.0391 6.21071 47.4142 6.58579C47.7893 6.96086 48 7.46957 48 8V26H42V22H6V26H0V8C0 7.46957 0.210714 6.96086 0.585786 6.58579C0.960859 6.21071 1.46957 6 2 6Z"/>
    </symbol>
    <symbol id="bathroom" viewBox="0 0 33 37">
        <path d="M11 37H25.6667V32.375C30.085 29.3595 33 24.272 33 18.5V3.7C33 2.7187 32.6137 1.77759 31.9261 1.0837C31.2384 0.38982 30.3058 0 29.3333 0H22C21.0275 0 20.0949 0.38982 19.4073 1.0837C18.7196 1.77759 18.3333 2.7187 18.3333 3.7V18.5H0C0 24.2165 3.66667 29.6 11 32.375V37ZM4.19833 22.2H28.8017C28.2867 23.9412 27.4152 25.554 26.2435 26.9338C25.0719 28.3137 23.6262 29.43 22 30.2105V33.3H14.6667V30.2105C11 29.6 5.24333 25.7335 4.19833 22.2ZM22 3.7H29.3333V18.5H22V3.7ZM23.8333 5.55V11.1H27.5V5.55H23.8333Z" />
    </symbol>
</svg>